<svg width="1440" height="444" viewBox="0 0 1440 444" fill="none" xmlns="http://www.w3.org/2000/svg">
<path d="M429.75 313L429.75 311.75L431 311.75L431.498 311.75L432.748 311.75L432.748 313L445.196 313L445.196 311.75L446.446 311.75L447.443 311.75L448.693 311.75L448.693 313L461.141 313L461.141 311.75L462.391 311.75L463.387 311.75L464.637 311.75L464.637 313L477.085 313L477.085 311.75L478.335 311.75L479.332 311.75L480.582 311.75L480.582 313L493.03 313L493.03 311.75L494.28 311.75L495.276 311.75L496.526 311.75L496.526 313L508.974 313L508.974 311.75L510.224 311.75L511.221 311.75L512.471 311.75L512.471 313L524.919 313L524.919 311.75L526.169 311.75L527.165 311.75L528.415 311.75L528.415 313L540.863 313L540.863 311.75L542.113 311.75L543.11 311.75L544.36 311.75L544.36 313L556.808 313L556.808 311.75L558.058 311.75L559.054 311.75L560.304 311.75L560.304 313L572.752 313L572.752 311.75L574.002 311.75L574.998 311.75L576.248 311.75L576.248 313L588.696 313L588.696 311.75L589.946 311.75L590.943 311.75L592.193 311.75L592.193 313L604.641 313L604.641 311.75L605.891 311.75L606.887 311.75L608.137 311.75L608.137 313L620.585 313L620.585 311.75L621.835 311.75L622.832 311.75L624.082 311.75L624.082 313L636.53 313L636.53 311.75L637.78 311.75L638.776 311.75L640.026 311.75L640.026 313L652.474 313L652.474 311.75L653.724 311.75L654.721 311.75L655.971 311.75L655.971 313L668.418 313L668.418 311.75L669.668 311.75L670.665 311.75L671.915 311.75L671.915 313L684.363 313L684.363 311.75L685.613 311.75L686.609 311.75L687.859 311.75L687.859 313L700.307 313L700.307 311.75L701.557 311.75L702.554 311.75L703.804 311.75L703.804 313L716.252 313L716.252 311.75L717.502 311.75L718.498 311.75L719.748 311.75L719.748 313L732.196 313L732.196 311.75L733.446 311.75L734.443 311.75L735.693 311.75L735.693 313L748.141 313L748.141 311.75L749.391 311.75L750.387 311.75L751.637 311.75L751.637 313L764.085 313L764.085 311.75L765.335 311.75L766.332 311.75L767.582 311.75L767.582 313L780.03 313L780.03 311.75L781.28 311.75L782.276 311.75L783.526 311.75L783.526 313L795.974 313L795.974 311.75L797.224 311.75L798.22 311.75L799.47 311.75L799.47 313L811.918 313L811.918 311.75L813.168 311.75L814.165 311.75L815.415 311.75L815.415 313L827.863 313L827.863 311.75L829.113 311.75L830.109 311.75L831.359 311.75L831.359 313L843.807 313L843.807 311.75L845.057 311.75L846.054 311.75L847.304 311.75L847.304 313L859.752 313L859.752 311.75L861.002 311.75L861.998 311.75L863.248 311.75L863.248 313L875.696 313L875.696 311.75L876.946 311.75L877.943 311.75L879.193 311.75L879.193 313L891.641 313L891.641 311.75L892.891 311.75L893.887 311.75L895.137 311.75L895.137 313L907.585 313L907.585 311.75L908.835 311.75L909.832 311.75L911.082 311.75L911.082 313L923.53 313L923.53 311.75L924.78 311.75L925.776 311.75L927.026 311.75L927.026 313L939.474 313L939.474 311.75L940.724 311.75L941.72 311.75L942.97 311.75L942.97 313L955.418 313L955.418 311.75L956.668 311.75L957.665 311.75L958.915 311.75L958.915 313L971.363 313L971.363 311.75L972.613 311.75L973.609 311.75L974.859 311.75L974.859 313L987.307 313L987.307 311.75L988.557 311.75L989.554 311.75L990.804 311.75L990.804 313L1003.25 313L1003.25 311.75L1004.5 311.75L1005 311.75L1006.25 311.75L1006.25 313L1006.25 313.5L1006.25 314.75L1005 314.75L1005 327.25L1006.25 327.25L1006.25 328.5L1006.25 329.5L1006.25 330.75L1005 330.75L1005 343.25L1006.25 343.25L1006.25 344.5L1006.25 345.5L1006.25 346.75L1005 346.75L1005 359.25L1006.25 359.25L1006.25 360.5L1006.25 361.5L1006.25 362.75L1005 362.75L1005 375.25L1006.25 375.25L1006.25 376.5L1006.25 377.5L1006.25 378.75L1005 378.75L1005 391.25L1006.25 391.25L1006.25 392.5L1006.25 393.5L1006.25 394.75L1005 394.75L1005 407.25L1006.25 407.25L1006.25 408.5L1006.25 409.5L1006.25 410.75L1005 410.75L1005 423.25L1006.25 423.25L1006.25 424.5L1006.25 425.5L1006.25 426.75L1005 426.75L1005 439.25L1006.25 439.25L1006.25 440.5L1006.25 441L1006.25 442.25L1005 442.25L1004.5 442.25L1003.25 442.25L1003.25 441L990.804 441L990.804 442.25L989.554 442.25L988.557 442.25L987.307 442.25L987.307 441L974.859 441L974.859 442.25L973.609 442.25L972.613 442.25L971.363 442.25L971.363 441L958.915 441L958.915 442.25L957.665 442.25L956.668 442.25L955.418 442.25L955.418 441L942.97 441L942.97 442.25L941.72 442.25L940.724 442.25L939.474 442.25L939.474 441L927.026 441L927.026 442.25L925.776 442.25L924.779 442.25L923.529 442.25L923.529 441L911.081 441L911.081 442.25L909.831 442.25L908.835 442.25L907.585 442.25L907.585 441L895.137 441L895.137 442.25L893.887 442.25L892.89 442.25L891.64 442.25L891.64 441L879.193 441L879.193 442.25L877.943 442.25L876.946 442.25L875.696 442.25L875.696 441L863.248 441L863.248 442.25L861.998 442.25L861.002 442.25L859.752 442.25L859.752 441L847.304 441L847.304 442.25L846.054 442.25L845.057 442.25L843.807 442.25L843.807 441L831.359 441L831.359 442.25L830.109 442.25L829.113 442.25L827.863 442.25L827.863 441L815.415 441L815.415 442.25L814.165 442.25L813.168 442.25L811.918 442.25L811.918 441L799.47 441L799.47 442.25L798.22 442.25L797.224 442.25L795.974 442.25L795.974 441L783.526 441L783.526 442.25L782.276 442.25L781.279 442.25L780.029 442.25L780.029 441L767.582 441L767.582 442.25L766.332 442.25L765.335 442.25L764.085 442.25L764.085 441L751.637 441L751.637 442.25L750.387 442.25L749.391 442.25L748.141 442.25L748.141 441L735.693 441L735.693 442.25L734.443 442.25L733.446 442.25L732.196 442.25L732.196 441L719.748 441L719.748 442.25L718.498 442.25L717.502 442.25L716.252 442.25L716.252 441L703.804 441L703.804 442.25L702.554 442.25L701.557 442.25L700.307 442.25L700.307 441L687.859 441L687.859 442.25L686.609 442.25L685.613 442.25L684.363 442.25L684.363 441L671.915 441L671.915 442.25L670.665 442.25L669.668 442.25L668.418 442.25L668.418 441L655.97 441L655.97 442.25L654.72 442.25L653.724 442.25L652.474 442.25L652.474 441L640.026 441L640.026 442.25L638.776 442.25L637.78 442.25L636.53 442.25L636.53 441L624.082 441L624.082 442.25L622.832 442.25L621.835 442.25L620.585 442.25L620.585 441L608.137 441L608.137 442.25L606.887 442.25L605.891 442.25L604.641 442.25L604.641 441L592.193 441L592.193 442.25L590.943 442.25L589.946 442.25L588.696 442.25L588.696 441L576.248 441L576.248 442.25L574.998 442.25L574.002 442.25L572.752 442.25L572.752 441L560.304 441L560.304 442.25L559.054 442.25L558.057 442.25L556.807 442.25L556.807 441L544.359 441L544.359 442.25L543.109 442.25L542.113 442.25L540.863 442.25L540.863 441L528.415 441L528.415 442.25L527.165 442.25L526.168 442.25L524.918 442.25L524.918 441L512.47 441L512.47 442.25L511.22 442.25L510.224 442.25L508.974 442.25L508.974 441L496.526 441L496.526 442.25L495.276 442.25L494.28 442.25L493.03 442.25L493.03 441L480.582 441L480.582 442.25L479.332 442.25L478.335 442.25L477.085 442.25L477.085 441L464.637 441L464.637 442.25L463.387 442.25L462.391 442.25L461.141 442.25L461.141 441L448.693 441L448.693 442.25L447.443 442.25L446.446 442.25L445.196 442.25L445.196 441L432.748 441L432.748 442.25L431.498 442.25L431 442.25L429.75 442.25L429.75 441L429.75 440.5L429.75 439.25L431 439.25L431 426.75L429.75 426.75L429.75 425.5L429.75 424.5L429.75 423.25L431 423.25L431 410.75L429.75 410.75L429.75 409.5L429.75 408.5L429.75 407.25L431 407.25L431 394.75L429.75 394.75L429.75 393.5L429.75 392.5L429.75 391.25L431 391.25L431 378.75L429.75 378.75L429.75 377.5L429.75 376.5L429.75 375.25L431 375.25L431 362.75L429.75 362.75L429.75 361.5L429.75 360.5L429.75 359.25L431 359.25L431 346.75L429.75 346.75L429.75 345.5L429.75 344.5L429.75 343.25L431 343.25L431 330.75L429.75 330.75L429.75 329.5L429.75 328.5L429.75 327.25L431 327.25L431 314.75L429.75 314.75L429.75 313.5L429.75 313Z" stroke="#1867FF" stroke-width="2.5" stroke-linecap="square" stroke-dasharray="1 15"/>
<line x1="1005.5" y1="296" x2="1005.5" y2="-49" stroke="#FF0000"/>
<line x1="1024" y1="311.5" x2="2289" y2="311.5" stroke="#FF0000"/>
<line x1="4.37114e-08" y1="311.5" x2="421" y2="311.5" stroke="#FF0000"/>
<path d="M1004.43 301H1007.57V323H1004.43V301Z" fill="black"/>
<path d="M1017 310.429V313.571L995 313.571L995 310.429L1017 310.429Z" fill="black"/>
<path fill-rule="evenodd" clip-rule="evenodd" d="M1007.57 301H1004.43V310.429H995V313.571H1004.43V323H1007.57V313.571H1017V310.429H1007.57V301ZM1006.52 309.381V302.048H1005.48V309.381H1006.52ZM1005.48 311.476L1006.52 311.476V312.524L1005.48 312.524V311.476ZM1003.38 311.476H996.048L996.048 312.524H1003.38V311.476ZM1005.48 314.619V321.952H1006.52V314.619L1005.48 314.619ZM1008.62 312.524V311.476H1015.95V312.524H1008.62Z" fill="white"/>
<line x1="1029.32" y1="307.707" x2="1020.78" y2="316.243" stroke="#FF0000" stroke-width="2" stroke-linejoin="bevel"/>
<path d="M1029 316L1020 307" stroke="#FF0000" stroke-width="2" stroke-linejoin="bevel"/>
<line x1="425.319" y1="307.707" x2="416.783" y2="316.243" stroke="#FF0000" stroke-width="2" stroke-linejoin="bevel"/>
<path d="M425 316L416 307" stroke="#FF0000" stroke-width="2" stroke-linejoin="bevel"/>
<line x1="1010.32" y1="290.707" x2="1001.78" y2="299.243" stroke="#FF0000" stroke-width="2" stroke-linejoin="bevel"/>
<path d="M1010 299L1001 290" stroke="#FF0000" stroke-width="2" stroke-linejoin="bevel"/>
<path d="M521.469 355.141H500.562V412H486.5V355.141H465.875V343.75H521.469V355.141ZM516.781 386.172C516.781 381.141 517.75 376.656 519.688 372.719C521.625 368.781 524.406 365.734 528.031 363.578C531.688 361.422 535.922 360.344 540.734 360.344C547.578 360.344 553.156 362.438 557.469 366.625C561.812 370.812 564.234 376.5 564.734 383.688L564.828 387.156C564.828 394.938 562.656 401.188 558.312 405.906C553.969 410.594 548.141 412.938 540.828 412.938C533.516 412.938 527.672 410.594 523.297 405.906C518.953 401.219 516.781 394.844 516.781 386.781V386.172ZM530.328 387.156C530.328 391.969 531.234 395.656 533.047 398.219C534.859 400.75 537.453 402.016 540.828 402.016C544.109 402.016 546.672 400.766 548.516 398.266C550.359 395.734 551.281 391.703 551.281 386.172C551.281 381.453 550.359 377.797 548.516 375.203C546.672 372.609 544.078 371.312 540.734 371.312C537.422 371.312 534.859 372.609 533.047 375.203C531.234 377.766 530.328 381.75 530.328 387.156ZM585.875 361.281L586.297 366.953C589.891 362.547 594.75 360.344 600.875 360.344C607.406 360.344 611.891 362.922 614.328 368.078C617.891 362.922 622.969 360.344 629.562 360.344C635.062 360.344 639.156 361.953 641.844 365.172C644.531 368.359 645.875 373.172 645.875 379.609V412H632.281V379.656C632.281 376.781 631.719 374.688 630.594 373.375C629.469 372.031 627.484 371.359 624.641 371.359C620.578 371.359 617.766 373.297 616.203 377.172L616.25 412H602.703V379.703C602.703 376.766 602.125 374.641 600.969 373.328C599.812 372.016 597.844 371.359 595.062 371.359C591.219 371.359 588.438 372.953 586.719 376.141V412H573.172V361.281H585.875ZM669.031 361.281L669.453 366.953C673.047 362.547 677.906 360.344 684.031 360.344C690.562 360.344 695.047 362.922 697.484 368.078C701.047 362.922 706.125 360.344 712.719 360.344C718.219 360.344 722.312 361.953 725 365.172C727.688 368.359 729.031 373.172 729.031 379.609V412H715.438V379.656C715.438 376.781 714.875 374.688 713.75 373.375C712.625 372.031 710.641 371.359 707.797 371.359C703.734 371.359 700.922 373.297 699.359 377.172L699.406 412H685.859V379.703C685.859 376.766 685.281 374.641 684.125 373.328C682.969 372.016 681 371.359 678.219 371.359C674.375 371.359 671.594 372.953 669.875 376.141V412H656.328V361.281H669.031ZM758.422 392.828L767.797 361.281H782.328L761.938 419.875L760.812 422.547C757.781 429.172 752.781 432.484 745.812 432.484C743.844 432.484 741.844 432.188 739.812 431.594V421.328L741.875 421.375C744.438 421.375 746.344 420.984 747.594 420.203C748.875 419.422 749.875 418.125 750.594 416.312L752.188 412.141L734.422 361.281H749L758.422 392.828ZM861.031 355.141H840.125V412H826.062V355.141H805.438V343.75H861.031V355.141ZM881.422 366.812C885.016 362.5 889.531 360.344 894.969 360.344C905.969 360.344 911.547 366.734 911.703 379.516V412H898.156V379.891C898.156 376.984 897.531 374.844 896.281 373.469C895.031 372.062 892.953 371.359 890.047 371.359C886.078 371.359 883.203 372.891 881.422 375.953V412H867.875V340H881.422V366.812ZM919.812 386.172C919.812 381.141 920.781 376.656 922.719 372.719C924.656 368.781 927.438 365.734 931.062 363.578C934.719 361.422 938.953 360.344 943.766 360.344C950.609 360.344 956.188 362.438 960.5 366.625C964.844 370.812 967.266 376.5 967.766 383.688L967.859 387.156C967.859 394.938 965.688 401.188 961.344 405.906C957 410.594 951.172 412.938 943.859 412.938C936.547 412.938 930.703 410.594 926.328 405.906C921.984 401.219 919.812 394.844 919.812 386.781V386.172ZM933.359 387.156C933.359 391.969 934.266 395.656 936.078 398.219C937.891 400.75 940.484 402.016 943.859 402.016C947.141 402.016 949.703 400.766 951.547 398.266C953.391 395.734 954.312 391.703 954.312 386.172C954.312 381.453 953.391 377.797 951.547 375.203C949.703 372.609 947.109 371.312 943.766 371.312C940.453 371.312 937.891 372.609 936.078 375.203C934.266 377.766 933.359 381.75 933.359 387.156Z" fill="black"/>
</svg>
