<svg width="329" height="229" viewBox="0 0 329 229" fill="none" xmlns="http://www.w3.org/2000/svg">
<rect width="271.958" height="203.142" fill="#1C1E24"/>
<rect width="18.5276" height="203.142" fill="#282C34"/>
<rect x="56.2445" y="9.26379" width="18.5276" height="6.61699" fill="#282C34"/>
<rect x="56.2445" y="15.8807" width="215.714" height="181.306" fill="#282C34"/>
<rect x="18.5276" width="37.7169" height="203.142" fill="#1C1E24"/>
<rect y="197.186" width="271.958" height="5.95529" fill="#1C1E24"/>
<rect width="271.958" height="9.26379" fill="#F4F4F4"/>
<circle cx="8.32217" cy="4.35195" r="2.36685" fill="#ED6C61"/>
<circle cx="8.32217" cy="4.35195" r="2.36685" stroke="#CA473A"/>
<circle cx="16.2116" cy="4.35195" r="2.36685" fill="#F6BF50"/>
<circle cx="16.2116" cy="4.35195" r="2.36685" stroke="#D19A38"/>
<circle cx="24.1011" cy="4.35195" r="2.36685" fill="#64CA57"/>
<circle cx="24.1011" cy="4.35195" r="2.36685" stroke="#3E7C30"/>
<path d="M117.404 3.85161C117.643 3.55889 117.953 3.41252 118.335 3.41252C119 3.41252 119.335 3.78764 119.341 4.53786V6.61698H118.803V4.53496C118.801 4.30814 118.749 4.14046 118.646 4.0319C118.545 3.92334 118.387 3.86906 118.172 3.86906C117.997 3.86906 117.844 3.91558 117.712 4.00863C117.581 4.10169 117.478 4.22382 117.404 4.37502V6.61698H116.866V2.15051H117.404V3.85161Z" fill="black"/>
<path d="M121.452 6.67514C121.025 6.67514 120.678 6.53556 120.411 6.25641C120.143 5.97531 120.01 5.6002 120.01 5.13107V5.0322C120.01 4.72009 120.069 4.4419 120.187 4.19764C120.307 3.95145 120.474 3.75953 120.687 3.62189C120.902 3.48231 121.135 3.41252 121.385 3.41252C121.794 3.41252 122.112 3.54725 122.339 3.81672C122.566 4.08618 122.679 4.47195 122.679 4.97404V5.19795H120.548C120.555 5.50812 120.645 5.75916 120.818 5.95108C120.992 6.14106 121.213 6.23605 121.481 6.23605C121.671 6.23605 121.832 6.19728 121.964 6.11974C122.096 6.0422 122.211 5.93945 122.31 5.81151L122.638 6.0674C122.375 6.47256 121.979 6.67514 121.452 6.67514ZM121.385 3.85452C121.168 3.85452 120.986 3.934 120.838 4.09296C120.691 4.24999 120.6 4.47098 120.565 4.75595H122.141V4.71524C122.126 4.4419 122.052 4.2306 121.92 4.08133C121.788 3.93012 121.61 3.85452 121.385 3.85452Z" fill="black"/>
<path d="M123.889 6.61698H123.351V2.15051H123.889V6.61698Z" fill="black"/>
<path d="M125.337 6.61698H124.799V2.15051H125.337V6.61698Z" fill="black"/>
<path d="M126.058 5.01475C126.058 4.70652 126.118 4.4293 126.238 4.18311C126.36 3.93691 126.529 3.74693 126.744 3.61317C126.961 3.4794 127.208 3.41252 127.486 3.41252C127.914 3.41252 128.26 3.56082 128.524 3.85743C128.789 4.15403 128.922 4.54853 128.922 5.04092V5.07873C128.922 5.38502 128.863 5.6603 128.745 5.90456C128.628 6.14688 128.461 6.33589 128.242 6.47159C128.025 6.60729 127.775 6.67514 127.492 6.67514C127.065 6.67514 126.719 6.52684 126.453 6.23024C126.19 5.93364 126.058 5.54107 126.058 5.05255V5.01475ZM126.599 5.07873C126.599 5.42767 126.679 5.70779 126.84 5.9191C127.003 6.1304 127.22 6.23605 127.492 6.23605C127.765 6.23605 127.982 6.12943 128.143 5.91619C128.304 5.70101 128.384 5.40053 128.384 5.01475C128.384 4.66969 128.302 4.39053 128.137 4.17729C127.974 3.96211 127.757 3.85452 127.486 3.85452C127.22 3.85452 127.006 3.96017 126.843 4.17147C126.68 4.38278 126.599 4.6852 126.599 5.07873Z" fill="black"/>
<path d="M130.716 5.03802H129.297V4.59893H130.716V5.03802Z" fill="black"/>
<path d="M134.028 5.87548L134.633 3.47068H135.171L134.255 6.61698H133.819L133.054 4.23254L132.31 6.61698H131.874L130.961 3.47068H131.496L132.115 5.82604L132.848 3.47068H133.281L134.028 5.87548Z" fill="black"/>
<path d="M135.578 5.01475C135.578 4.70652 135.638 4.4293 135.759 4.18311C135.881 3.93691 136.049 3.74693 136.265 3.61317C136.482 3.4794 136.729 3.41252 137.006 3.41252C137.434 3.41252 137.78 3.56082 138.044 3.85743C138.31 4.15403 138.443 4.54853 138.443 5.04092V5.07873C138.443 5.38502 138.383 5.6603 138.265 5.90456C138.149 6.14688 137.981 6.33589 137.762 6.47159C137.545 6.60729 137.295 6.67514 137.012 6.67514C136.585 6.67514 136.239 6.52684 135.974 6.23024C135.71 5.93364 135.578 5.54107 135.578 5.05255V5.01475ZM136.119 5.07873C136.119 5.42767 136.2 5.70779 136.36 5.9191C136.523 6.1304 136.74 6.23605 137.012 6.23605C137.285 6.23605 137.502 6.12943 137.663 5.91619C137.824 5.70101 137.905 5.40053 137.905 5.01475C137.905 4.66969 137.822 4.39053 137.657 4.17729C137.495 3.96211 137.277 3.85452 137.006 3.85452C136.74 3.85452 136.526 3.96017 136.363 4.17147C136.201 4.38278 136.119 4.6852 136.119 5.07873Z" fill="black"/>
<path d="M140.638 3.95338C140.557 3.93981 140.468 3.93303 140.373 3.93303C140.021 3.93303 139.781 4.08327 139.655 4.38375V6.61698H139.117V3.47068H139.641L139.649 3.83416C139.826 3.55307 140.076 3.41252 140.4 3.41252C140.504 3.41252 140.584 3.42609 140.638 3.45323V3.95338Z" fill="black"/>
<path d="M141.72 6.61698H141.182V2.15051H141.72V6.61698Z" fill="black"/>
<path d="M142.452 5.01766C142.452 4.53496 142.567 4.14724 142.796 3.85452C143.024 3.55985 143.324 3.41252 143.694 3.41252C144.062 3.41252 144.354 3.53853 144.569 3.79054V2.15051H145.107V6.61698H144.613L144.587 6.27967C144.372 6.54332 144.072 6.67514 143.688 6.67514C143.324 6.67514 143.026 6.52587 142.796 6.22733C142.567 5.92879 142.452 5.53914 142.452 5.05837V5.01766ZM142.99 5.07873C142.99 5.43542 143.064 5.71458 143.211 5.91619C143.359 6.1178 143.562 6.21861 143.822 6.21861C144.163 6.21861 144.412 6.06546 144.569 5.75916V4.31396C144.408 4.01736 144.161 3.86906 143.828 3.86906C143.564 3.86906 143.359 3.97083 143.211 4.17438C143.064 4.37793 142.99 4.67938 142.99 5.07873Z" fill="black"/>
<path d="M145.956 6.33492C145.956 6.24187 145.984 6.16433 146.038 6.10229C146.094 6.04026 146.177 6.00924 146.288 6.00924C146.398 6.00924 146.482 6.04026 146.538 6.10229C146.596 6.16433 146.625 6.24187 146.625 6.33492C146.625 6.42409 146.596 6.49873 146.538 6.55882C146.482 6.61892 146.398 6.64897 146.288 6.64897C146.177 6.64897 146.094 6.61892 146.038 6.55882C145.984 6.49873 145.956 6.42409 145.956 6.33492Z" fill="black"/>
<path d="M148.245 2.70882V3.47068H148.832V3.8865H148.245V5.83768C148.245 5.96368 148.271 6.05867 148.323 6.12265C148.376 6.18468 148.465 6.2157 148.591 6.2157C148.653 6.2157 148.738 6.20407 148.847 6.1808V6.61698C148.705 6.65575 148.568 6.67514 148.434 6.67514C148.194 6.67514 148.012 6.60244 147.89 6.45705C147.768 6.31166 147.707 6.1052 147.707 5.83768V3.8865H147.134V3.47068H147.707V2.70882H148.245Z" fill="black"/>
<path d="M151.295 5.78243C151.295 5.63703 151.24 5.5246 151.13 5.44512C151.021 5.3637 150.83 5.29391 150.557 5.23575C150.285 5.17759 150.069 5.1078 149.908 5.02638C149.749 4.94496 149.631 4.84804 149.553 4.7356C149.478 4.62316 149.44 4.4894 149.44 4.33431C149.44 4.07648 149.549 3.85839 149.766 3.68005C149.985 3.5017 150.264 3.41252 150.603 3.41252C150.96 3.41252 151.249 3.50461 151.47 3.68877C151.693 3.87293 151.804 4.10847 151.804 4.39538H151.263C151.263 4.24805 151.2 4.12107 151.074 4.01445C150.95 3.90783 150.793 3.85452 150.603 3.85452C150.407 3.85452 150.254 3.89717 150.144 3.98246C150.033 4.06776 149.978 4.17923 149.978 4.31687C149.978 4.44675 150.029 4.54465 150.132 4.61056C150.235 4.67647 150.42 4.73948 150.688 4.79957C150.957 4.85967 151.175 4.93139 151.342 5.01475C151.508 5.09811 151.632 5.19892 151.711 5.31717C151.792 5.43348 151.833 5.57597 151.833 5.74462C151.833 6.02572 151.721 6.25156 151.496 6.42216C151.271 6.59081 150.979 6.67514 150.621 6.67514C150.369 6.67514 150.146 6.63055 149.952 6.54138C149.758 6.4522 149.606 6.32813 149.495 6.16917C149.387 6.00827 149.332 5.83477 149.332 5.64867H149.87C149.88 5.82895 149.952 5.97241 150.086 6.07903C150.221 6.18371 150.4 6.23605 150.621 6.23605C150.824 6.23605 150.987 6.19534 151.109 6.11392C151.233 6.03056 151.295 5.92007 151.295 5.78243Z" fill="black"/>
<path d="M153.59 4.61928L154.287 3.47068H154.916L153.886 5.02638L154.948 6.61698H154.325L153.598 5.4393L152.871 6.61698H152.246L153.307 5.02638L152.278 3.47068H152.9L153.59 4.61928Z" fill="black"/>
<rect x="56.175" y="25.8584" width="271.958" height="203.142" fill="#1C1E24"/>
<rect x="56.175" y="25.8584" width="18.5276" height="203.142" fill="#282C34"/>
<rect x="112.419" y="35.1221" width="18.5276" height="6.61699" fill="#282C34"/>
<rect x="112.419" y="41.7393" width="215.714" height="181.306" fill="#282C34"/>
<rect x="74.7025" y="25.8584" width="37.7169" height="203.142" fill="#1C1E24"/>
<rect x="56.175" y="223.045" width="271.958" height="5.95529" fill="#1C1E24"/>
<rect x="56.175" y="25.8584" width="271.958" height="9.26379" fill="#F4F4F4"/>
<circle cx="64.4971" cy="30.2104" r="2.36685" fill="#ED6C61"/>
<circle cx="64.4971" cy="30.2104" r="2.36685" stroke="#CA473A"/>
<circle cx="72.3866" cy="30.2104" r="2.36685" fill="#F6BF50"/>
<circle cx="72.3866" cy="30.2104" r="2.36685" stroke="#D19A38"/>
<circle cx="80.2761" cy="30.2104" r="2.36685" fill="#64CA57"/>
<circle cx="80.2761" cy="30.2104" r="2.36685" stroke="#3E7C30"/>
<path d="M173.579 29.7099C173.818 29.4172 174.128 29.2708 174.51 29.2708C175.175 29.2708 175.51 29.6459 175.516 30.3961V32.4753H174.978V30.3932C174.976 30.1664 174.923 29.9987 174.821 29.8902C174.72 29.7816 174.562 29.7273 174.347 29.7273C174.172 29.7273 174.019 29.7739 173.887 29.8669C173.756 29.96 173.653 30.0821 173.579 30.2333V32.4753H173.041V28.0088H173.579V29.7099Z" fill="black"/>
<path d="M177.627 32.5334C177.2 32.5334 176.853 32.3938 176.586 32.1147C176.318 31.8336 176.185 31.4585 176.185 30.9893V30.8905C176.185 30.5784 176.244 30.3002 176.362 30.0559C176.482 29.8097 176.649 29.6178 176.862 29.4802C177.077 29.3406 177.31 29.2708 177.56 29.2708C177.969 29.2708 178.287 29.4055 178.514 29.675C178.741 29.9445 178.854 30.3302 178.854 30.8323V31.0562H176.722C176.73 31.3664 176.82 31.6174 176.993 31.8094C177.167 31.9993 177.388 32.0943 177.656 32.0943C177.846 32.0943 178.007 32.0556 178.139 31.978C178.27 31.9005 178.386 31.7977 178.485 31.6698L178.813 31.9257C178.55 32.3308 178.154 32.5334 177.627 32.5334ZM177.56 29.7128C177.343 29.7128 177.161 29.7923 177.013 29.9512C176.866 30.1083 176.775 30.3293 176.74 30.6142H178.316V30.5735C178.3 30.3002 178.227 30.0889 178.095 29.9396C177.963 29.7884 177.785 29.7128 177.56 29.7128Z" fill="black"/>
<path d="M180.064 32.4753H179.526V28.0088H180.064V32.4753Z" fill="black"/>
<path d="M181.512 32.4753H180.974V28.0088H181.512V32.4753Z" fill="black"/>
<path d="M182.233 30.873C182.233 30.5648 182.293 30.2876 182.413 30.0414C182.535 29.7952 182.704 29.6052 182.919 29.4714C183.136 29.3377 183.383 29.2708 183.661 29.2708C184.089 29.2708 184.435 29.4191 184.699 29.7157C184.964 30.0123 185.097 30.4068 185.097 30.8992V30.937C185.097 31.2433 185.038 31.5186 184.92 31.7628C184.803 32.0052 184.636 32.1942 184.417 32.3299C184.2 32.4656 183.949 32.5334 183.666 32.5334C183.24 32.5334 182.894 32.3851 182.628 32.0885C182.365 31.7919 182.233 31.3994 182.233 30.9108V30.873ZM182.774 30.937C182.774 31.2859 182.854 31.5661 183.015 31.7774C183.178 31.9887 183.395 32.0943 183.666 32.0943C183.94 32.0943 184.157 31.9877 184.318 31.7745C184.479 31.5593 184.559 31.2588 184.559 30.873C184.559 30.528 184.477 30.2488 184.312 30.0356C184.149 29.8204 183.932 29.7128 183.661 29.7128C183.395 29.7128 183.181 29.8184 183.018 30.0298C182.855 30.2411 182.774 30.5435 182.774 30.937Z" fill="black"/>
<path d="M186.891 30.8963H185.472V30.4572H186.891V30.8963Z" fill="black"/>
<path d="M190.203 31.7338L190.808 29.329H191.346L190.43 32.4753H189.994L189.229 30.0908L188.485 32.4753H188.049L187.136 29.329H187.671L188.29 31.6843L189.023 29.329H189.456L190.203 31.7338Z" fill="black"/>
<path d="M191.753 30.873C191.753 30.5648 191.813 30.2876 191.933 30.0414C192.056 29.7952 192.224 29.6052 192.439 29.4714C192.657 29.3377 192.904 29.2708 193.181 29.2708C193.609 29.2708 193.955 29.4191 194.219 29.7157C194.485 30.0123 194.617 30.4068 194.617 30.8992V30.937C194.617 31.2433 194.558 31.5186 194.44 31.7628C194.324 32.0052 194.156 32.1942 193.937 32.3299C193.72 32.4656 193.47 32.5334 193.187 32.5334C192.76 32.5334 192.414 32.3851 192.149 32.0885C191.885 31.7919 191.753 31.3994 191.753 30.9108V30.873ZM192.294 30.937C192.294 31.2859 192.375 31.5661 192.535 31.7774C192.698 31.9887 192.915 32.0943 193.187 32.0943C193.46 32.0943 193.677 31.9877 193.838 31.7745C193.999 31.5593 194.079 31.2588 194.079 30.873C194.079 30.528 193.997 30.2488 193.832 30.0356C193.669 29.8204 193.452 29.7128 193.181 29.7128C192.915 29.7128 192.701 29.8184 192.538 30.0298C192.375 30.2411 192.294 30.5435 192.294 30.937Z" fill="black"/>
<path d="M196.813 29.8117C196.731 29.7981 196.643 29.7913 196.548 29.7913C196.195 29.7913 195.956 29.9415 195.83 30.242V32.4753H195.292V29.329H195.815L195.824 29.6924C196.001 29.4113 196.251 29.2708 196.574 29.2708C196.679 29.2708 196.759 29.2844 196.813 29.3115V29.8117Z" fill="black"/>
<path d="M197.895 32.4753H197.357V28.0088H197.895V32.4753Z" fill="black"/>
<path d="M198.627 30.8759C198.627 30.3932 198.742 30.0055 198.971 29.7128C199.199 29.4181 199.499 29.2708 199.869 29.2708C200.237 29.2708 200.529 29.3968 200.744 29.6488V28.0088H201.282V32.4753H200.788L200.762 32.1379C200.547 32.4016 200.247 32.5334 199.863 32.5334C199.499 32.5334 199.201 32.3841 198.971 32.0856C198.742 31.7871 198.627 31.3974 198.627 30.9166V30.8759ZM199.165 30.937C199.165 31.2937 199.239 31.5729 199.386 31.7745C199.534 31.9761 199.737 32.0769 199.997 32.0769C200.338 32.0769 200.587 31.9237 200.744 31.6174V30.1722C200.583 29.8756 200.336 29.7273 200.003 29.7273C199.739 29.7273 199.534 29.8291 199.386 30.0327C199.239 30.2362 199.165 30.5377 199.165 30.937Z" fill="black"/>
<path d="M202.131 32.1932C202.131 32.1001 202.158 32.0226 202.213 31.9606C202.269 31.8985 202.352 31.8675 202.463 31.8675C202.573 31.8675 202.657 31.8985 202.713 31.9606C202.771 32.0226 202.8 32.1001 202.8 32.1932C202.8 32.2824 202.771 32.357 202.713 32.4171C202.657 32.4772 202.573 32.5072 202.463 32.5072C202.352 32.5072 202.269 32.4772 202.213 32.4171C202.158 32.357 202.131 32.2824 202.131 32.1932Z" fill="black"/>
<path d="M204.42 28.5671V29.329H205.007V29.7448H204.42V31.696C204.42 31.822 204.446 31.9169 204.498 31.9809C204.551 32.043 204.64 32.074 204.766 32.074C204.828 32.074 204.913 32.0623 205.022 32.0391V32.4753C204.88 32.514 204.743 32.5334 204.609 32.5334C204.368 32.5334 204.187 32.4607 204.065 32.3153C203.943 32.1699 203.882 31.9635 203.882 31.696V29.7448H203.309V29.329H203.882V28.5671H204.42Z" fill="black"/>
<path d="M207.47 31.6407C207.47 31.4953 207.415 31.3829 207.304 31.3034C207.196 31.222 207.005 31.1522 206.732 31.094C206.46 31.0359 206.244 30.9661 206.083 30.8847C205.924 30.8032 205.806 30.7063 205.728 30.5939C205.653 30.4814 205.615 30.3477 205.615 30.1926C205.615 29.9348 205.724 29.7167 205.941 29.5383C206.16 29.36 206.439 29.2708 206.778 29.2708C207.135 29.2708 207.424 29.3629 207.645 29.547C207.868 29.7312 207.979 29.9667 207.979 30.2537H207.438C207.438 30.1063 207.375 29.9793 207.249 29.8727C207.125 29.7661 206.968 29.7128 206.778 29.7128C206.582 29.7128 206.429 29.7554 206.319 29.8407C206.208 29.926 206.153 30.0375 206.153 30.1751C206.153 30.305 206.204 30.4029 206.307 30.4688C206.41 30.5347 206.595 30.5978 206.862 30.6578C207.132 30.7179 207.35 30.7897 207.517 30.873C207.683 30.9564 207.807 31.0572 207.886 31.1754C207.967 31.2918 208.008 31.4342 208.008 31.6029C208.008 31.884 207.896 32.1098 207.671 32.2804C207.446 32.4491 207.154 32.5334 206.796 32.5334C206.544 32.5334 206.321 32.4888 206.127 32.3997C205.933 32.3105 205.781 32.1864 205.67 32.0274C205.562 31.8665 205.507 31.693 205.507 31.5069H206.045C206.055 31.6872 206.127 31.8307 206.261 31.9373C206.396 32.042 206.575 32.0943 206.796 32.0943C206.999 32.0943 207.162 32.0536 207.284 31.9722C207.408 31.8888 207.47 31.7783 207.47 31.6407Z" fill="black"/>
<path d="M209.764 30.4776L210.462 29.329H211.09L210.061 30.8847L211.122 32.4753H210.5L209.773 31.2976L209.046 32.4753H208.421L209.482 30.8847L208.453 29.329H209.075L209.764 30.4776Z" fill="black"/>
</svg>
