<svg width="430" height="192" viewBox="0 0 430 192" fill="none" xmlns="http://www.w3.org/2000/svg">
<path d="M214 96.5219C214 82.3138 196.247 68.8489 169.028 60.499C175.309 32.6949 172.517 10.574 160.216 3.49187C157.381 1.83062 154.066 1.04372 150.446 1.04372V10.7926C152.452 10.7926 154.066 11.1861 155.418 11.9293C161.351 15.3392 163.924 28.3232 161.918 45.0231C161.438 49.1325 160.653 53.4605 159.693 57.8759C151.143 55.7775 141.809 54.16 131.994 53.1108C126.106 45.0231 119.999 37.6786 113.848 31.2522C128.068 18.0059 141.416 10.7489 150.489 10.7489V1C138.494 1 122.79 9.56855 106.913 24.4324C91.0351 9.65599 75.3318 1.17487 63.3363 1.17487V10.9238C72.3657 10.9238 85.757 18.1371 99.9772 31.2959C93.8704 37.7224 87.7636 45.0231 81.9621 53.1108C72.104 54.16 62.7693 55.7775 54.2197 57.9197C53.2165 53.5479 52.4749 49.3074 51.9515 45.2417C49.9013 28.5418 52.4313 15.5578 58.32 12.1041C59.6286 11.3172 61.3298 10.9675 63.3363 10.9675V1.21859C59.6722 1.21859 56.3571 2.00549 53.4782 3.66674C41.221 10.7489 38.4729 32.826 44.7978 60.5427C17.6661 68.9364 0 82.3575 0 96.5219C0 110.73 17.7534 124.195 44.9723 132.545C38.691 160.349 41.4827 182.47 53.7835 189.552C56.6188 191.213 59.934 192 63.598 192C75.5936 192 91.2968 183.431 107.174 168.568C123.052 183.344 138.755 191.825 150.751 191.825C154.415 191.825 157.73 191.038 160.609 189.377C172.866 182.295 175.614 160.218 169.289 132.501C196.334 124.151 214 110.686 214 96.5219ZM157.207 67.3626C155.593 73.0021 153.586 78.8164 151.318 84.6308C149.53 81.1334 147.654 77.6361 145.604 74.1387C143.597 70.6413 141.46 67.2314 139.322 63.9089C145.517 64.827 151.492 65.9636 157.207 67.3626ZM137.229 113.921C133.826 119.823 130.337 125.419 126.716 130.621C120.217 131.19 113.63 131.496 107 131.496C100.413 131.496 93.8267 131.19 87.371 130.665C83.7505 125.463 80.2173 119.911 76.8149 114.052C73.4998 108.325 70.49 102.511 67.742 96.653C70.4464 90.7949 73.4998 84.9368 76.7713 79.2099C80.1737 73.3081 83.6633 67.7123 87.2837 62.51C93.7831 61.9416 100.37 61.6356 107 61.6356C113.587 61.6356 120.173 61.9416 126.629 62.4662C130.249 67.6686 133.783 73.2206 137.185 79.0787C140.5 84.8057 143.51 90.62 146.258 96.4781C143.51 102.336 140.5 108.194 137.229 113.921ZM151.318 108.238C153.673 114.096 155.68 119.954 157.338 125.637C151.623 127.036 145.604 128.217 139.366 129.135C141.503 125.769 143.641 122.315 145.647 118.774C147.654 115.276 149.53 111.735 151.318 108.238ZM107.087 154.884C103.031 150.687 98.9739 146.01 94.9609 140.895C98.8867 141.07 102.9 141.201 106.956 141.201C111.057 141.201 115.113 141.113 119.083 140.895C115.157 146.01 111.1 150.687 107.087 154.884ZM74.6339 129.135C68.4399 128.217 62.4639 127.08 56.7497 125.681C58.3636 120.042 60.3702 114.227 62.6384 108.413C64.4268 111.91 66.3025 115.408 68.3526 118.905C70.4028 122.402 72.4965 125.812 74.6339 129.135ZM106.869 38.1595C110.926 42.3564 114.982 47.0341 118.996 52.149C115.07 51.9741 111.057 51.843 107 51.843C102.9 51.843 98.8431 51.9304 94.8736 52.149C98.7994 47.0341 102.856 42.3564 106.869 38.1595ZM74.5903 63.9089C72.4529 67.2751 70.3155 70.7288 68.309 74.2699C66.3025 77.7672 64.4268 81.2646 62.6384 84.762C60.2829 78.9039 58.2764 73.0458 56.6188 67.3626C62.3331 66.0073 68.3526 64.827 74.5903 63.9089ZM35.1142 118.643C19.6727 112.041 9.68365 103.385 9.68365 96.5219C9.68365 89.6583 19.6727 80.9586 35.1142 74.401C38.8655 72.7835 42.9658 71.3408 47.1969 69.9856C49.6832 78.5541 52.9548 87.4724 57.0114 96.6093C52.9984 105.702 49.7705 114.577 47.3278 123.102C43.0094 121.747 38.9091 120.26 35.1142 118.643ZM58.5817 181.114C52.6494 177.704 50.0758 164.721 52.0824 148.021C52.5622 143.911 53.3473 139.583 54.307 135.168C62.8565 137.266 72.1912 138.884 82.0057 139.933C87.8944 148.021 94.0012 155.365 100.152 161.791C85.9315 175.038 72.5838 182.295 63.5108 182.295C61.5479 182.251 59.8903 181.858 58.5817 181.114ZM162.049 147.802C164.099 164.502 161.569 177.486 155.68 180.94C154.371 181.726 152.67 182.076 150.664 182.076C141.634 182.076 128.243 174.863 114.023 161.704C120.13 155.278 126.236 147.977 132.038 139.889C141.896 138.84 151.231 137.222 159.78 135.08C160.784 139.496 161.569 143.736 162.049 147.802ZM178.842 118.643C175.091 120.26 170.991 121.703 166.759 123.058C164.273 114.49 161.002 105.571 156.945 96.4344C160.958 87.3413 164.186 78.4667 166.629 69.9419C170.947 71.2971 175.047 72.7835 178.886 74.401C194.327 81.0023 204.316 89.6583 204.316 96.5219C204.273 103.385 194.284 112.085 178.842 118.643Z" fill="#61DAFB"/>
<path d="M106.956 116.501C117.966 116.501 126.891 107.556 126.891 96.5219C126.891 85.4879 117.966 76.5431 106.956 76.5431C95.9469 76.5431 87.022 85.4879 87.022 96.5219C87.022 107.556 95.9469 116.501 106.956 116.501Z" fill="#61DAFB"/>
<path d="M412.609 9.9987C409.908 16.4479 406.483 22.5721 402.357 28.1963C384.303 10.1487 359.799 0 334.269 0C281.458 0 238 43.4943 238 96.3625C238 122.734 248.802 147.981 267.906 166.178L271.456 169.328C288.81 183.951 310.789 192 333.468 192C383.678 192 425.886 152.655 429.462 102.512C432.087 77.9649 424.886 46.9189 412.609 9.9987ZM281.583 166.728C280.033 168.653 277.658 169.778 275.182 169.778C270.656 169.778 266.956 166.053 266.956 161.529C266.956 157.005 270.681 153.28 275.182 153.28C277.058 153.28 278.908 153.93 280.358 155.13C283.884 157.979 284.434 163.204 281.583 166.728ZM412.209 137.882C388.454 169.553 337.719 158.879 305.188 160.404C305.188 160.404 299.412 160.754 293.611 161.704C293.611 161.704 295.786 160.779 298.612 159.704C321.441 151.755 332.243 150.205 346.121 143.081C372.251 129.783 398.081 100.687 403.457 70.4158C393.505 99.537 363.349 124.559 335.869 134.732C317.04 141.682 283.034 148.431 283.034 148.431L281.658 147.706C258.504 136.432 257.804 86.2638 299.887 70.0659C318.316 62.9668 335.944 66.8663 355.848 62.1169C377.102 57.0676 401.682 41.1196 411.684 20.3224C422.886 53.593 436.363 105.686 412.209 137.882Z" fill="#77BC1F"/>
</svg>
