<svg width="1434" height="493" viewBox="0 0 1434 493" fill="none" xmlns="http://www.w3.org/2000/svg">
<path d="M150.469 402.141H129.562V459H115.5V402.141H94.875V390.75H150.469V402.141ZM145.781 433.172C145.781 428.141 146.75 423.656 148.688 419.719C150.625 415.781 153.406 412.734 157.031 410.578C160.688 408.422 164.922 407.344 169.734 407.344C176.578 407.344 182.156 409.438 186.469 413.625C190.812 417.812 193.234 423.5 193.734 430.688L193.828 434.156C193.828 441.938 191.656 448.188 187.312 452.906C182.969 457.594 177.141 459.938 169.828 459.938C162.516 459.938 156.672 457.594 152.297 452.906C147.953 448.219 145.781 441.844 145.781 433.781V433.172ZM159.328 434.156C159.328 438.969 160.234 442.656 162.047 445.219C163.859 447.75 166.453 449.016 169.828 449.016C173.109 449.016 175.672 447.766 177.516 445.266C179.359 442.734 180.281 438.703 180.281 433.172C180.281 428.453 179.359 424.797 177.516 422.203C175.672 419.609 173.078 418.312 169.734 418.312C166.422 418.312 163.859 419.609 162.047 422.203C160.234 424.766 159.328 428.75 159.328 434.156ZM214.875 408.281L215.297 413.953C218.891 409.547 223.75 407.344 229.875 407.344C236.406 407.344 240.891 409.922 243.328 415.078C246.891 409.922 251.969 407.344 258.562 407.344C264.062 407.344 268.156 408.953 270.844 412.172C273.531 415.359 274.875 420.172 274.875 426.609V459H261.281V426.656C261.281 423.781 260.719 421.688 259.594 420.375C258.469 419.031 256.484 418.359 253.641 418.359C249.578 418.359 246.766 420.297 245.203 424.172L245.25 459H231.703V426.703C231.703 423.766 231.125 421.641 229.969 420.328C228.812 419.016 226.844 418.359 224.062 418.359C220.219 418.359 217.438 419.953 215.719 423.141V459H202.172V408.281H214.875ZM298.031 408.281L298.453 413.953C302.047 409.547 306.906 407.344 313.031 407.344C319.562 407.344 324.047 409.922 326.484 415.078C330.047 409.922 335.125 407.344 341.719 407.344C347.219 407.344 351.312 408.953 354 412.172C356.688 415.359 358.031 420.172 358.031 426.609V459H344.438V426.656C344.438 423.781 343.875 421.688 342.75 420.375C341.625 419.031 339.641 418.359 336.797 418.359C332.734 418.359 329.922 420.297 328.359 424.172L328.406 459H314.859V426.703C314.859 423.766 314.281 421.641 313.125 420.328C311.969 419.016 310 418.359 307.219 418.359C303.375 418.359 300.594 419.953 298.875 423.141V459H285.328V408.281H298.031ZM387.422 439.828L396.797 408.281H411.328L390.938 466.875L389.812 469.547C386.781 476.172 381.781 479.484 374.812 479.484C372.844 479.484 370.844 479.188 368.812 478.594V468.328L370.875 468.375C373.438 468.375 375.344 467.984 376.594 467.203C377.875 466.422 378.875 465.125 379.594 463.312L381.188 459.141L363.422 408.281H378L387.422 439.828ZM490.031 402.141H469.125V459H455.062V402.141H434.438V390.75H490.031V402.141ZM510.422 413.812C514.016 409.5 518.531 407.344 523.969 407.344C534.969 407.344 540.547 413.734 540.703 426.516V459H527.156V426.891C527.156 423.984 526.531 421.844 525.281 420.469C524.031 419.062 521.953 418.359 519.047 418.359C515.078 418.359 512.203 419.891 510.422 422.953V459H496.875V387H510.422V413.812ZM548.812 433.172C548.812 428.141 549.781 423.656 551.719 419.719C553.656 415.781 556.438 412.734 560.062 410.578C563.719 408.422 567.953 407.344 572.766 407.344C579.609 407.344 585.188 409.438 589.5 413.625C593.844 417.812 596.266 423.5 596.766 430.688L596.859 434.156C596.859 441.938 594.688 448.188 590.344 452.906C586 457.594 580.172 459.938 572.859 459.938C565.547 459.938 559.703 457.594 555.328 452.906C550.984 448.219 548.812 441.844 548.812 433.781V433.172ZM562.359 434.156C562.359 438.969 563.266 442.656 565.078 445.219C566.891 447.75 569.484 449.016 572.859 449.016C576.141 449.016 578.703 447.766 580.547 445.266C582.391 442.734 583.312 438.703 583.312 433.172C583.312 428.453 582.391 424.797 580.547 422.203C578.703 419.609 576.109 418.312 572.766 418.312C569.453 418.312 566.891 419.609 565.078 422.203C563.266 424.766 562.359 428.75 562.359 434.156Z" fill="black"/>
<path d="M60.75 362L60.75 360.75L62 360.75L62.4985 360.75L63.7485 360.75L63.7485 362L76.1964 362L76.1964 360.75L77.4464 360.75L78.4429 360.75L79.6929 360.75L79.6929 362L92.1409 362L92.1409 360.75L93.3909 360.75L94.3874 360.75L95.6374 360.75L95.6374 362L108.085 362L108.085 360.75L109.335 360.75L110.332 360.75L111.582 360.75L111.582 362L124.03 362L124.03 360.75L125.28 360.75L126.276 360.75L127.526 360.75L127.526 362L139.974 362L139.974 360.75L141.224 360.75L142.221 360.75L143.471 360.75L143.471 362L155.919 362L155.919 360.75L157.169 360.75L158.165 360.75L159.415 360.75L159.415 362L171.863 362L171.863 360.75L173.113 360.75L174.11 360.75L175.36 360.75L175.36 362L187.808 362L187.808 360.75L189.058 360.75L190.054 360.75L191.304 360.75L191.304 362L203.752 362L203.752 360.75L205.002 360.75L205.998 360.75L207.248 360.75L207.248 362L219.696 362L219.696 360.75L220.946 360.75L221.943 360.75L223.193 360.75L223.193 362L235.641 362L235.641 360.75L236.891 360.75L237.887 360.75L239.137 360.75L239.137 362L251.585 362L251.585 360.75L252.835 360.75L253.832 360.75L255.082 360.75L255.082 362L267.53 362L267.53 360.75L268.78 360.75L269.776 360.75L271.026 360.75L271.026 362L283.474 362L283.474 360.75L284.724 360.75L285.721 360.75L286.971 360.75L286.971 362L299.418 362L299.418 360.75L300.668 360.75L301.665 360.75L302.915 360.75L302.915 362L315.363 362L315.363 360.75L316.613 360.75L317.609 360.75L318.859 360.75L318.859 362L331.307 362L331.307 360.75L332.557 360.75L333.554 360.75L334.804 360.75L334.804 362L347.252 362L347.252 360.75L348.502 360.75L349.498 360.75L350.748 360.75L350.748 362L363.196 362L363.196 360.75L364.446 360.75L365.443 360.75L366.693 360.75L366.693 362L379.141 362L379.141 360.75L380.391 360.75L381.387 360.75L382.637 360.75L382.637 362L395.085 362L395.085 360.75L396.335 360.75L397.332 360.75L398.582 360.75L398.582 362L411.03 362L411.03 360.75L412.28 360.75L413.276 360.75L414.526 360.75L414.526 362L426.974 362L426.974 360.75L428.224 360.75L429.22 360.75L430.47 360.75L430.47 362L442.918 362L442.918 360.75L444.168 360.75L445.165 360.75L446.415 360.75L446.415 362L458.863 362L458.863 360.75L460.113 360.75L461.109 360.75L462.359 360.75L462.359 362L474.807 362L474.807 360.75L476.057 360.75L477.054 360.75L478.304 360.75L478.304 362L490.752 362L490.752 360.75L492.002 360.75L492.998 360.75L494.248 360.75L494.248 362L506.696 362L506.696 360.75L507.946 360.75L508.943 360.75L510.193 360.75L510.193 362L522.641 362L522.641 360.75L523.891 360.75L524.887 360.75L526.137 360.75L526.137 362L538.585 362L538.585 360.75L539.835 360.75L540.832 360.75L542.082 360.75L542.082 362L554.53 362L554.53 360.75L555.78 360.75L556.776 360.75L558.026 360.75L558.026 362L570.474 362L570.474 360.75L571.724 360.75L572.72 360.75L573.97 360.75L573.97 362L586.418 362L586.418 360.75L587.668 360.75L588.665 360.75L589.915 360.75L589.915 362L602.363 362L602.363 360.75L603.613 360.75L604.609 360.75L605.859 360.75L605.859 362L618.307 362L618.307 360.75L619.557 360.75L620.554 360.75L621.804 360.75L621.804 362L634.252 362L634.252 360.75L635.502 360.75L636 360.75L637.25 360.75L637.25 362L637.25 362.5L637.25 363.75L636 363.75L636 376.25L637.25 376.25L637.25 377.5L637.25 378.5L637.25 379.75L636 379.75L636 392.25L637.25 392.25L637.25 393.5L637.25 394.5L637.25 395.75L636 395.75L636 408.25L637.25 408.25L637.25 409.5L637.25 410.5L637.25 411.75L636 411.75L636 424.25L637.25 424.25L637.25 425.5L637.25 426.5L637.25 427.75L636 427.75L636 440.25L637.25 440.25L637.25 441.5L637.25 442.5L637.25 443.75L636 443.75L636 456.25L637.25 456.25L637.25 457.5L637.25 458.5L637.25 459.75L636 459.75L636 472.25L637.25 472.25L637.25 473.5L637.25 474.5L637.25 475.75L636 475.75L636 488.25L637.25 488.25L637.25 489.5L637.25 490L637.25 491.25L636 491.25L635.502 491.25L634.252 491.25L634.252 490L621.804 490L621.804 491.25L620.554 491.25L619.557 491.25L618.307 491.25L618.307 490L605.859 490L605.859 491.25L604.609 491.25L603.613 491.25L602.363 491.25L602.363 490L589.915 490L589.915 491.25L588.665 491.25L587.668 491.25L586.418 491.25L586.418 490L573.97 490L573.97 491.25L572.72 491.25L571.724 491.25L570.474 491.25L570.474 490L558.026 490L558.026 491.25L556.776 491.25L555.779 491.25L554.529 491.25L554.529 490L542.081 490L542.081 491.25L540.831 491.25L539.835 491.25L538.585 491.25L538.585 490L526.137 490L526.137 491.25L524.887 491.25L523.89 491.25L522.64 491.25L522.64 490L510.193 490L510.193 491.25L508.943 491.25L507.946 491.25L506.696 491.25L506.696 490L494.248 490L494.248 491.25L492.998 491.25L492.002 491.25L490.752 491.25L490.752 490L478.304 490L478.304 491.25L477.054 491.25L476.057 491.25L474.807 491.25L474.807 490L462.359 490L462.359 491.25L461.109 491.25L460.113 491.25L458.863 491.25L458.863 490L446.415 490L446.415 491.25L445.165 491.25L444.168 491.25L442.918 491.25L442.918 490L430.47 490L430.47 491.25L429.22 491.25L428.224 491.25L426.974 491.25L426.974 490L414.526 490L414.526 491.25L413.276 491.25L412.279 491.25L411.029 491.25L411.029 490L398.582 490L398.582 491.25L397.332 491.25L396.335 491.25L395.085 491.25L395.085 490L382.637 490L382.637 491.25L381.387 491.25L380.391 491.25L379.141 491.25L379.141 490L366.693 490L366.693 491.25L365.443 491.25L364.446 491.25L363.196 491.25L363.196 490L350.748 490L350.748 491.25L349.498 491.25L348.502 491.25L347.252 491.25L347.252 490L334.804 490L334.804 491.25L333.554 491.25L332.557 491.25L331.307 491.25L331.307 490L318.859 490L318.859 491.25L317.609 491.25L316.613 491.25L315.363 491.25L315.363 490L302.915 490L302.915 491.25L301.665 491.25L300.668 491.25L299.418 491.25L299.418 490L286.97 490L286.97 491.25L285.72 491.25L284.724 491.25L283.474 491.25L283.474 490L271.026 490L271.026 491.25L269.776 491.25L268.78 491.25L267.53 491.25L267.53 490L255.082 490L255.082 491.25L253.832 491.25L252.835 491.25L251.585 491.25L251.585 490L239.137 490L239.137 491.25L237.887 491.25L236.891 491.25L235.641 491.25L235.641 490L223.193 490L223.193 491.25L221.943 491.25L220.946 491.25L219.696 491.25L219.696 490L207.248 490L207.248 491.25L205.998 491.25L205.002 491.25L203.752 491.25L203.752 490L191.304 490L191.304 491.25L190.054 491.25L189.057 491.25L187.807 491.25L187.807 490L175.359 490L175.359 491.25L174.109 491.25L173.113 491.25L171.863 491.25L171.863 490L159.415 490L159.415 491.25L158.165 491.25L157.168 491.25L155.918 491.25L155.918 490L143.47 490L143.47 491.25L142.22 491.25L141.224 491.25L139.974 491.25L139.974 490L127.526 490L127.526 491.25L126.276 491.25L125.28 491.25L124.03 491.25L124.03 490L111.582 490L111.582 491.25L110.332 491.25L109.335 491.25L108.085 491.25L108.085 490L95.6372 490L95.6372 491.25L94.3872 491.25L93.3906 491.25L92.1406 491.25L92.1406 490L79.6927 490L79.6927 491.25L78.4427 491.25L77.4462 491.25L76.1962 491.25L76.1962 490L63.7483 490L63.7483 491.25L62.4983 491.25L62 491.25L60.75 491.25L60.75 490L60.75 489.5L60.75 488.25L62 488.25L62 475.75L60.75 475.75L60.75 474.5L60.75 473.5L60.75 472.25L62 472.25L62 459.75L60.75 459.75L60.75 458.5L60.75 457.5L60.75 456.25L62 456.25L62 443.75L60.75 443.75L60.75 442.5L60.75 441.5L60.75 440.25L62 440.25L62 427.75L60.75 427.75L60.75 426.5L60.75 425.5L60.75 424.25L62 424.25L62 411.75L60.75 411.75L60.75 410.5L60.75 409.5L60.75 408.25L62 408.25L62 395.75L60.75 395.75L60.75 394.5L60.75 393.5L60.75 392.25L62 392.25L62 379.75L60.75 379.75L60.75 378.5L60.75 377.5L60.75 376.25L62 376.25L62 363.75L60.75 363.75L60.75 362.5L60.75 362Z" stroke="#1867FF" stroke-width="2.5" stroke-linecap="square" stroke-dasharray="1 15"/>
<line x1="636.5" y1="345" x2="636.5" y2="-2.18557e-08" stroke="#FF0000"/>
<line x1="655" y1="360.5" x2="1920" y2="360.5" stroke="#FF0000"/>
<line x1="-4.37114e-08" y1="360.5" x2="52" y2="360.5" stroke="#FF0000"/>
<g filter="url(#filter0_d)">
<path d="M635.429 350H638.571V372H635.429V350Z" fill="black"/>
<path d="M648 359.429V362.571L626 362.571L626 359.429L648 359.429Z" fill="black"/>
</g>
<g filter="url(#filter1_d)">
<path fill-rule="evenodd" clip-rule="evenodd" d="M638.571 350H635.429V359.429H626V362.571H635.429V372H638.571V362.571H648V359.429H638.571V350ZM637.524 358.381V351.048H636.476V358.381H637.524ZM636.476 360.476L637.524 360.476V361.524L636.476 361.524V360.476ZM634.381 360.476H627.048L627.048 361.524H634.381V360.476ZM636.476 363.619V370.952H637.524V363.619L636.476 363.619ZM639.619 361.524V360.476H646.952V361.524H639.619Z" fill="white"/>
</g>
<line x1="660.319" y1="356.707" x2="651.783" y2="365.243" stroke="#FF0000" stroke-width="2" stroke-linejoin="bevel"/>
<path d="M660 365L651 356" stroke="#FF0000" stroke-width="2" stroke-linejoin="bevel"/>
<line x1="56.3187" y1="356.707" x2="47.7825" y2="365.243" stroke="#FF0000" stroke-width="2" stroke-linejoin="bevel"/>
<path d="M56 365L47 356" stroke="#FF0000" stroke-width="2" stroke-linejoin="bevel"/>
<line x1="641.319" y1="339.707" x2="632.783" y2="348.243" stroke="#FF0000" stroke-width="2" stroke-linejoin="bevel"/>
<path d="M641 348L632 339" stroke="#FF0000" stroke-width="2" stroke-linejoin="bevel"/>
<defs>
<filter id="filter0_d" x="622" y="350" width="30" height="30" filterUnits="userSpaceOnUse" color-interpolation-filters="sRGB">
<feFlood flood-opacity="0" result="BackgroundImageFix"/>
<feColorMatrix in="SourceAlpha" type="matrix" values="0 0 0 0 0 0 0 0 0 0 0 0 0 0 0 0 0 0 127 0"/>
<feOffset dy="4"/>
<feGaussianBlur stdDeviation="2"/>
<feColorMatrix type="matrix" values="0 0 0 0 0 0 0 0 0 0 0 0 0 0 0 0 0 0 0.15 0"/>
<feBlend mode="normal" in2="BackgroundImageFix" result="effect1_dropShadow"/>
<feBlend mode="normal" in="SourceGraphic" in2="effect1_dropShadow" result="shape"/>
</filter>
<filter id="filter1_d" x="622" y="350" width="30" height="30" filterUnits="userSpaceOnUse" color-interpolation-filters="sRGB">
<feFlood flood-opacity="0" result="BackgroundImageFix"/>
<feColorMatrix in="SourceAlpha" type="matrix" values="0 0 0 0 0 0 0 0 0 0 0 0 0 0 0 0 0 0 127 0"/>
<feOffset dy="4"/>
<feGaussianBlur stdDeviation="2"/>
<feColorMatrix type="matrix" values="0 0 0 0 0 0 0 0 0 0 0 0 0 0 0 0 0 0 0.15 0"/>
<feBlend mode="normal" in2="BackgroundImageFix" result="effect1_dropShadow"/>
<feBlend mode="normal" in="SourceGraphic" in2="effect1_dropShadow" result="shape"/>
</filter>
</defs>
</svg>
